<?xml version="1.0" standalone="no"?>
<!DOCTYPE svg PUBLIC "-//W3C//DTD SVG 20010904//EN"
 "http://www.w3.org/TR/2001/REC-SVG-20010904/DTD/svg10.dtd">
<svg version="1.0" xmlns="http://www.w3.org/2000/svg"
 width="260.000000pt" height="260.000000pt" viewBox="0 0 260.000000 260.000000"
 preserveAspectRatio="xMidYMid meet">
<metadata>
Created by potrace 1.11, written by Peter Selinger 2001-2013
</metadata>
<g transform="translate(0.000000,260.000000) scale(0.100000,-0.100000)"
fill="#000000" stroke="none">
<path d="M743 2269 l-543 -321 0 -648 0 -648 550 325 550 325 0 644 c0 354 -3
644 -7 644 -5 0 -252 -145 -550 -321z"/>
<path d="M1843 1617 l-543 -321 0 -643 c0 -354 2 -643 5 -643 3 0 251 145 550
322 l545 322 0 643 c0 354 -3 643 -7 642 -5 0 -252 -145 -550 -322z"/>
</g>
</svg>
